<mxfile host="app.diagrams.net" modified="2023-07-17T09:11:55.249Z" agent="Mozilla/5.0 (Windows NT 10.0; Win64; x64) AppleWebKit/537.36 (KHTML, like Gecko) Chrome/114.0.0.0 Safari/537.36" etag="c1s7avd7fd_98BZjIwXt" version="21.6.2" type="github">
  <diagram name="第 1 页" id="SlPnQXDKBgKA9mUTKN4Q">
    <mxGraphModel dx="1050" dy="549" grid="1" gridSize="10" guides="1" tooltips="1" connect="1" arrows="1" fold="1" page="1" pageScale="1" pageWidth="827" pageHeight="1169" math="0" shadow="0">
      <root>
        <mxCell id="0" />
        <mxCell id="1" parent="0" />
        <mxCell id="HfXEUfawvwGaL9e04rd9-1" value="CPU" style="rounded=1;whiteSpace=wrap;html=1;fillColor=#ffe6cc;strokeColor=#d79b00;" vertex="1" parent="1">
          <mxGeometry x="200" y="159" width="480" height="60" as="geometry" />
        </mxCell>
        <mxCell id="HfXEUfawvwGaL9e04rd9-2" value="Cache" style="rounded=1;whiteSpace=wrap;html=1;fillColor=#fff2cc;strokeColor=#d6b656;" vertex="1" parent="1">
          <mxGeometry x="200" y="278" width="120" height="40" as="geometry" />
        </mxCell>
        <mxCell id="HfXEUfawvwGaL9e04rd9-3" value="主存（内存）" style="rounded=1;whiteSpace=wrap;html=1;fillColor=#f8cecc;strokeColor=#b85450;" vertex="1" parent="1">
          <mxGeometry x="200" y="380" width="480" height="50" as="geometry" />
        </mxCell>
        <mxCell id="HfXEUfawvwGaL9e04rd9-4" value="辅存（外存）" style="rounded=1;whiteSpace=wrap;html=1;fillColor=#e1d5e7;strokeColor=#9673a6;" vertex="1" parent="1">
          <mxGeometry x="200" y="500" width="480" height="50" as="geometry" />
        </mxCell>
        <mxCell id="HfXEUfawvwGaL9e04rd9-5" value="" style="endArrow=classic;startArrow=classic;html=1;rounded=0;exitX=0.5;exitY=0;exitDx=0;exitDy=0;" edge="1" parent="1" source="HfXEUfawvwGaL9e04rd9-2">
          <mxGeometry width="50" height="50" relative="1" as="geometry">
            <mxPoint x="210" y="260" as="sourcePoint" />
            <mxPoint x="260" y="220" as="targetPoint" />
          </mxGeometry>
        </mxCell>
        <mxCell id="HfXEUfawvwGaL9e04rd9-6" value="" style="endArrow=classic;startArrow=classic;html=1;rounded=0;entryX=0.5;entryY=1;entryDx=0;entryDy=0;exitX=0.124;exitY=0.052;exitDx=0;exitDy=0;exitPerimeter=0;" edge="1" parent="1" source="HfXEUfawvwGaL9e04rd9-3" target="HfXEUfawvwGaL9e04rd9-2">
          <mxGeometry width="50" height="50" relative="1" as="geometry">
            <mxPoint x="200" y="380" as="sourcePoint" />
            <mxPoint x="250" y="330" as="targetPoint" />
          </mxGeometry>
        </mxCell>
        <mxCell id="HfXEUfawvwGaL9e04rd9-7" value="" style="endArrow=classic;startArrow=classic;html=1;rounded=0;" edge="1" parent="1">
          <mxGeometry width="50" height="50" relative="1" as="geometry">
            <mxPoint x="521" y="381" as="sourcePoint" />
            <mxPoint x="521" y="220" as="targetPoint" />
          </mxGeometry>
        </mxCell>
        <mxCell id="HfXEUfawvwGaL9e04rd9-8" value="" style="endArrow=classic;startArrow=classic;html=1;rounded=0;exitX=0.5;exitY=0;exitDx=0;exitDy=0;" edge="1" parent="1" source="HfXEUfawvwGaL9e04rd9-4">
          <mxGeometry width="50" height="50" relative="1" as="geometry">
            <mxPoint x="390" y="480" as="sourcePoint" />
            <mxPoint x="440" y="430" as="targetPoint" />
          </mxGeometry>
        </mxCell>
      </root>
    </mxGraphModel>
  </diagram>
</mxfile>
